PathFileType	4	(X/Y/Z) flx_0kg_3.trc																										
DataRate	CameraRate	NumFrames	NumMarkers	Units	OrigDataRate	OrigDataStartFrame	OrigNumFrames																					
100	100	39	9	mm	100	209	835																					
Frame#	Time	gu			centelbow			EpL			centpxt8			centijc7			ij			ts			aa			ai		
		X1	Y1	Z1	X2	Y2	Z2	X3	Y3	Z3	X4	Y4	Z4	X5	Y5	Z5	X6	Y6	Z6	X7	Y7	Z7	X8	Y8	Z8	X9	Y9	Z9  
208	2.08	-68.992	27.834	146.196	152.608	-14.312	246.702	147.014	13.991	261.094	-46.816	-153.158	-8.669	-46.816	31.938	-8.669	0	0	0	-148.207	-3.086	60.769	-99.772	50.989	155.398	-133.139	-101.26	115.726
209	2.09	-69.333	28.96	145.675	152.656	-9.651	246.741	146.734	18.734	260.835	-46.816	-153.158	-8.669	-46.816	31.938	-8.669	0	0	0	-148.685	-3.218	61.007	-100.263	51.567	155.234	-133.335	-101.007	116.572
210	2.1	-70.025	30.009	145.269	152.292	-5.125	246.881	146.057	23.347	260.662	-46.816	-153.158	-8.669	-46.816	31.938	-8.669	0	0	0	-148.981	-3.158	60.934	-100.524	52.335	154.728	-133.319	-100.555	117.095
211	2.11	-70.964	30.821	144.759	151.622	-0.974	246.88	145.094	27.584	260.344	-46.816	-153.158	-8.669	-46.816	31.938	-8.669	0	0	0	-149.105	-2.988	60.602	-100.573	53.211	153.936	-133.104	-99.99	117.35
212	2.12	-71.681	31.524	144.06	151.136	2.929	246.623	144.325	31.56	259.788	-46.816	-153.158	-8.669	-46.816	31.938	-8.669	0	0	0	-149.215	-2.929	60.354	-100.61	53.949	153.237	-132.891	-99.543	117.667
213	2.13	-71.862	32.304	143.252	151.155	6.879	246.214	144.054	35.565	259.101	-46.816	-153.158	-8.669	-46.816	31.938	-8.669	0	0	0	-149.431	-3.041	60.213	-100.758	54.47	152.669	-132.829	-99.287	118.064
214	2.14	-71.709	32.965	142.55	151.447	10.713	245.946	144.048	39.446	258.561	-46.816	-153.158	-8.669	-46.816	31.938	-8.669	0	0	0	-149.702	-3.242	59.99	-100.941	54.879	152.018	-132.851	-99.124	118.371
215	2.15	-71.707	33.288	142.09	151.517	14.209	245.973	143.816	42.981	258.313	-46.816	-153.158	-8.669	-46.816	31.938	-8.669	0	0	0	-149.924	-3.439	59.746	-101.077	55.31	151.329	-132.827	-98.94	118.678
216	2.16	-72.143	33.74	141.639	151.147	17.984	245.934	143.127	46.786	258	-46.816	-153.158	-8.669	-46.816	31.938	-8.669	0	0	0	-150.118	-3.553	59.673	-101.241	55.879	150.797	-132.737	-98.64	119.188
217	2.17	-72.951	34.766	140.864	150.456	22.55	245.382	142.098	51.366	257.18	-46.816	-153.158	-8.669	-46.816	31.938	-8.669	0	0	0	-150.354	-3.515	59.692	-101.507	56.645	150.353	-132.622	-98.163	119.8
218	2.18	-73.774	35.864	139.871	149.739	27.121	244.511	141.053	55.944	256.051	-46.816	-153.158	-8.669	-46.816	31.938	-8.669	0	0	0	-150.551	-3.38	59.622	-101.75	57.503	149.825	-132.44	-97.59	120.302
219	2.19	-74.112	36.385	139.116	149.41	30.812	243.956	140.421	59.642	255.247	-46.816	-153.158	-8.669	-46.816	31.938	-8.669	0	0	0	-150.603	-3.319	59.523	-101.819	58.241	149.274	-132.157	-97.108	120.753
220	2.2	-73.767	36.47	138.777	149.672	33.899	243.91	140.389	62.727	254.963	-46.816	-153.158	-8.669	-46.816	31.938	-8.669	0	0	0	-150.595	-3.462	59.547	-101.786	58.743	148.839	-131.892	-96.834	121.334
221	2.21	-73.166	36.651	138.617	150.16	37.121	244.018	140.575	65.937	254.844	-46.816	-153.158	-8.669	-46.816	31.938	-8.669	0	0	0	-150.6	-3.772	59.703	-101.741	59.06	148.528	-131.695	-96.726	122.056
222	2.22	-72.935	37.227	138.436	150.255	40.799	244.066	140.359	69.594	254.666	-46.816	-153.158	-8.669	-46.816	31.938	-8.669	0	0	0	-150.54	-4.002	59.88	-101.647	59.437	148.253	-131.443	-96.546	122.781
223	2.23	-73.325	38.077	138.228	149.678	44.772	244.1	139.467	73.539	254.474	-46.816	-153.158	-8.669	-46.816	31.938	-8.669	0	0	0	-150.489	-3.973	59.973	-101.591	60.057	147.916	-131.174	-96.118	123.391
224	2.24	-74.155	38.814	137.993	148.636	48.651	244.068	138.111	77.386	254.212	-46.816	-153.158	-8.669	-46.816	31.938	-8.669	0	0	0	-150.624	-3.932	60.042	-101.717	60.675	147.557	-131.08	-95.684	123.958
225	2.25	-74.933	39.249	137.649	147.672	52.255	243.773	136.841	80.959	253.681	-46.816	-153.158	-8.669	-46.816	31.938	-8.669	0	0	0	-150.913	-4.212	60.289	-101.958	60.958	147.358	-131.174	-95.569	124.709
226	2.26	-75.146	39.777	136.977	147.317	55.996	242.957	136.189	84.669	252.624	-46.816	-153.158	-8.669	-46.816	31.938	-8.669	0	0	0	-151.216	-4.67	60.681	-102.186	61.072	147.277	-131.308	-95.615	125.631
227	2.27	-74.85	40.956	135.817	147.468	60.522	241.534	136.032	89.154	250.958	-46.816	-153.158	-8.669	-46.816	31.938	-8.669	0	0	0	-151.434	-4.896	60.833	-102.332	61.448	146.927	-131.318	-95.404	126.326
228	2.28	-74.679	42.438	134.646	147.376	65.447	240.223	135.611	94.028	249.397	-46.816	-153.158	-8.669	-46.816	31.938	-8.669	0	0	0	-151.481	-4.79	60.543	-102.33	62.177	146.126	-131.099	-94.849	126.57
229	2.29	-75.03	43.164	134.213	146.573	69.399	239.989	134.492	97.931	248.899	-46.816	-153.158	-8.669	-46.816	31.938	-8.669	0	0	0	-151.4	-4.584	60.156	-102.234	62.989	145.253	-130.765	-94.202	126.702
230	2.3	-75.662	42.976	134.287	145.404	72.09	240.431	133.043	100.586	249.069	-46.816	-153.158	-8.669	-46.816	31.938	-8.669	0	0	0	-151.313	-4.492	60.094	-102.165	63.645	144.75	-130.513	-93.688	127.153
231	2.31	-76.191	42.763	134.037	144.385	74.656	240.403	131.764	103.12	248.769	-46.816	-153.158	-8.669	-46.816	31.938	-8.669	0	0	0	-151.269	-4.554	60.334	-102.158	64.112	144.583	-130.395	-93.342	127.911
232	2.32	-76.506	43.012	133.429	143.579	77.796	239.904	130.691	106.218	247.997	-46.816	-153.158	-8.669	-46.816	31.938	-8.669	0	0	0	-151.305	-4.657	60.533	-102.242	64.531	144.382	-130.384	-93.035	128.631
233	2.33	-76.702	43.623	132.781	142.808	81.451	239.404	129.63	109.817	247.223	-46.816	-153.158	-8.669	-46.816	31.938	-8.669	0	0	0	-151.437	-4.64	60.408	-102.44	65.098	143.839	-130.424	-92.588	129.032
234	2.34	-76.981	44.568	131.926	141.895	85.627	238.657	128.401	113.917	246.209	-46.816	-153.158	-8.669	-46.816	31.938	-8.669	0	0	0	-151.632	-4.462	59.995	-102.727	65.858	142.991	-130.47	-91.958	129.148
235	2.35	-77.509	45.655	130.906	140.721	90.005	237.644	126.899	118.2	244.95	-46.816	-153.158	-8.669	-46.816	31.938	-8.669	0	0	0	-151.833	-4.223	59.607	-103.043	66.677	142.175	-130.521	-91.266	129.284
236	2.36	-78.136	46.384	130.22	139.431	93.821	236.985	125.297	121.92	244.065	-46.816	-153.158	-8.669	-46.816	31.938	-8.669	0	0	0	-151.916	-4.067	59.441	-103.236	67.383	141.6	-130.494	-90.671	129.63
237	2.37	-78.609	46.592	129.941	138.275	96.87	236.795	123.855	124.877	243.657	-46.816	-153.158	-8.669	-46.816	31.938	-8.669	0	0	0	-151.824	-4.147	59.433	-103.235	67.829	141.184	-130.339	-90.318	130.134
238	2.38	-78.987	46.586	129.648	137.202	99.634	236.571	122.507	127.553	243.209	-46.816	-153.158	-8.669	-46.816	31.938	-8.669	0	0	0	-151.73	-4.541	59.525	-103.223	67.954	140.866	-130.231	-90.272	130.755
239	2.39	-79.389	46.677	129.169	136.075	102.557	236.112	121.105	130.384	242.513	-46.816	-153.158	-8.669	-46.816	31.938	-8.669	0	0	0	-151.751	-5.074	59.688	-103.34	67.927	140.632	-130.273	-90.368	131.447
240	2.4	-79.66	47.072	128.665	135.04	105.888	235.571	119.786	133.616	241.727	-46.816	-153.158	-8.669	-46.816	31.938	-8.669	0	0	0	-151.758	-5.414	59.8	-103.471	68.099	140.355	-130.286	-90.267	132.08
241	2.41	-79.695	47.749	128.204	134.209	109.58	235.005	118.665	137.202	240.911	-46.816	-153.158	-8.669	-46.816	31.938	-8.669	0	0	0	-151.7	-5.527	59.834	-103.565	68.529	139.982	-130.193	-89.915	132.647
242	2.42	-79.721	48.368	127.729	133.357	113.151	234.431	117.533	140.665	240.084	-46.816	-153.158	-8.669	-46.816	31.938	-8.669	0	0	0	-151.704	-5.716	59.877	-103.731	68.901	139.6	-130.158	-89.618	133.238
243	2.43	-79.942	48.697	127.273	132.254	116.244	234.019	116.161	143.651	239.43	-46.816	-153.158	-8.669	-46.816	31.938	-8.669	0	0	0	-151.774	-6.055	59.909	-103.961	69.1	139.221	-130.217	-89.483	133.805
244	2.44	-80.34	48.767	126.953	130.903	118.892	233.925	114.55	146.19	239.104	-46.816	-153.158	-8.669	-46.816	31.938	-8.669	0	0	0	-151.811	-6.306	59.877	-104.172	69.356	138.811	-130.263	-89.281	134.284
245	2.45	-80.853	48.696	126.776	129.415	121.351	233.982	112.809	148.54	238.926	-46.816	-153.158	-8.669	-46.816	31.938	-8.669	0	0	0	-151.851	-6.373	59.828	-104.407	69.796	138.392	-130.325	-88.893	134.746
246	2.46	-81.371	48.909	126.492	127.941	124.305	233.676	111.075	151.377	238.369	-46.816	-153.158	-8.669	-46.816	31.938	-8.669	0	0	0	-151.941	-6.414	59.81	-104.703	70.288	137.977	-130.434	-88.45	135.263
